<?xml version="1.0" encoding="UTF-8" standalone="no" ?>
<!DOCTYPE svg PUBLIC "-//W3C//DTD SVG 1.1//EN" "http://www.w3.org/Graphics/SVG/1.1/DTD/svg11.dtd">
<svg xmlns="http://www.w3.org/2000/svg" xmlns:xlink="http://www.w3.org/1999/xlink" version="1.1" width="200" height="112.39616" viewBox="1.041211890581991 -8.59999999999998 416.4982211297367 234.0640035090663" xml:space="preserve">
<desc>Created with Fabric.js 4.6.0</desc>
<defs>
</defs>
<g transform="matrix(1 0 0 1 208.09 59.7)" style="" id="Yudj5W6M1TiLjvcSPfgeR"  >
		<text xml:space="preserve" font-family="Epilogue" font-size="120" font-style="normal" font-weight="700" letter-spacing="15.84" line-height="1" style="stroke: none; stroke-width: 1; stroke-dasharray: none; stroke-linecap: butt; stroke-dashoffset: 0; stroke-linejoin: miter; stroke-miterlimit: 4; fill: rgb(108,59,244); fill-rule: nonzero; opacity: 1; white-space: pre;" ><tspan x="-191.94" y="37.7" >o</tspan><tspan x="-97.74" y="37.7" >s</tspan><tspan x="-14.16" y="37.7" >m</tspan><tspan x="113.58" y="37.7" >o</tspan></text>
</g>
<g transform="matrix(1 0 0 1 101.12 152.59)" style="" id="vLmePimjLEtqosN227H2M"  >
		<text xml:space="preserve" font-family="Epilogue" font-size="120" font-style="normal" font-weight="700" letter-spacing="15.84" line-height="1" style="stroke: none; stroke-width: 1; stroke-dasharray: none; stroke-linecap: butt; stroke-dashoffset: 0; stroke-linejoin: miter; stroke-miterlimit: 4; fill: rgb(108,59,244); fill-rule: nonzero; opacity: 1; white-space: pre;" ><tspan x="-85.11" y="37.7" >c</tspan><tspan x="6.75" y="37.7" >o</tspan></text>
</g>
<g transform="matrix(1 0 0 1 313.36 152.59)" style="" id="Z57Nn_9sa4Y1Ww_UxaXuP"  >
		<text xml:space="preserve" font-family="Epilogue" font-size="120" font-style="normal" font-weight="700" letter-spacing="15.84" line-height="1" style="stroke: none; stroke-width: 1; stroke-dasharray: none; stroke-linecap: butt; stroke-dashoffset: 0; stroke-linejoin: miter; stroke-miterlimit: 4; fill: rgb(108,59,244); fill-rule: nonzero; opacity: 1; white-space: pre;" ><tspan x="-86.67" y="37.7" >d</tspan><tspan x="8.31" y="37.7" >e</tspan></text>
</g>
<g transform="matrix(4.06 0 0 2.17 209.29 112.2)" id="TkyTTq0Ze53o2O_xfyTBh"  >
<path style="stroke: rgb(108,59,244); stroke-width: 10; stroke-dasharray: none; stroke-linecap: butt; stroke-dashoffset: 0; stroke-linejoin: miter; stroke-miterlimit: 4; fill: none; fill-rule: nonzero; opacity: 1;" vector-effect="non-scaling-stroke"  transform=" translate(0, 0)" d="M -50 -22.2386 C -50 -37.570800000000006 -43.37957 -50 -35.21286 -50 L 35.212849999999996 -50 L 35.212849999999996 -50 C 43.37956 -50 49.99999 -37.5708 49.99999 -22.2386 L 49.99999 22.2386 L 49.99999 22.2386 C 49.99999 37.570800000000006 43.37956 50 35.212849999999996 50 L -35.21286 50 L -35.21286 50 C -43.37957 50 -50 37.5708 -50 22.2386 z" stroke-linecap="round" />
</g>
</svg>